<?xml version="1.0" encoding="UTF-8" standalone="no"?>
<svg
   xmlns:dc="http://purl.org/dc/elements/1.1/"
   xmlns:cc="http://creativecommons.org/ns#"
   xmlns:rdf="http://www.w3.org/1999/02/22-rdf-syntax-ns#"
   xmlns:svg="http://www.w3.org/2000/svg"
   xmlns="http://www.w3.org/2000/svg"
   xmlns:sodipodi="http://sodipodi.sourceforge.net/DTD/sodipodi-0.dtd"
   xmlns:inkscape="http://www.inkscape.org/namespaces/inkscape"
   version="1.1"
   x="0px"
   y="0px"
   viewBox="0 0 50 50"
   enable-background="new 0 0 50 50"
   xml:space="preserve"
   id="svg50"
   sodipodi:docname="noun_Scrapbook_1361879.svg"
   width="50"
   height="50"
   inkscape:export-filename="/home/elio/Blog/scrapbook/img/favicon.png"
   inkscape:export-xdpi="96"
   inkscape:export-ydpi="96"
   inkscape:version="0.92.3 (2405546, 2018-03-11)"><metadata
     id="metadata56"><rdf:RDF><cc:Work
         rdf:about=""><dc:format>image/svg+xml</dc:format><dc:type
           rdf:resource="http://purl.org/dc/dcmitype/StillImage" /><dc:title></dc:title></cc:Work></rdf:RDF></metadata><defs
     id="defs54" /><sodipodi:namedview
     pagecolor="#ffffff"
     bordercolor="#666666"
     borderopacity="1"
     objecttolerance="10"
     gridtolerance="10"
     guidetolerance="10"
     inkscape:pageopacity="0"
     inkscape:pageshadow="2"
     inkscape:window-width="1086"
     inkscape:window-height="715"
     id="namedview52"
     showgrid="false"
     fit-margin-top="2"
     fit-margin-left="2"
     fit-margin-right="2"
     fit-margin-bottom="2"
     inkscape:zoom="4.3720666"
     inkscape:cx="31.587385"
     inkscape:cy="19.075094"
     inkscape:window-x="1410"
     inkscape:window-y="43"
     inkscape:window-maximized="0"
     inkscape:current-layer="svg50" /><g
     id="g901"
     transform="matrix(1.100908,0,0,1.100908,-0.871338,-5.3850628)"><rect
       y="7.8275833"
       x="4.8254728"
       height="39.546944"
       width="39.555218"
       id="rect874"
       style="opacity:1;fill:#cd9ef7;fill-opacity:1;stroke:none;stroke-width:11.55807304;stroke-linecap:round;stroke-miterlimit:4;stroke-dasharray:none;stroke-opacity:1" /><rect
       y="23.269651"
       x="20.602753"
       height="13.804876"
       width="18.818588"
       id="rect868"
       style="opacity:1;fill:#452981;fill-opacity:1;stroke:none;stroke-width:11.33858299;stroke-linecap:round;stroke-miterlimit:4;stroke-dasharray:none;stroke-opacity:1" /><path
       sodipodi:nodetypes="ccccccc"
       inkscape:connector-curvature="0"
       id="path872"
       d="m 10.635169,20.937237 12.497246,-5.801377 4.064142,7.994492 -6.799311,-0.198623 v 7.801377 l -4.263454,2.362765 -5.531726,-11.43035"
       style="fill:#452981;fill-opacity:1;stroke:none;stroke-width:1px;stroke-linecap:butt;stroke-linejoin:miter;stroke-opacity:1" /><path
       inkscape:connector-curvature="0"
       id="path2"
       d="M 44.9,48.000002 H 4.2 V 7.2000016 H 45 V 48.000002 Z m -39.7,-1 H 44 V 8.2000016 H 5.2 Z" /><rect
       id="rect4"
       height="1"
       width="4"
       y="27.700001"
       x="2" /><rect
       id="rect6"
       height="1"
       width="4"
       y="25.700001"
       x="2" /><rect
       id="rect8"
       height="1"
       width="4"
       y="23.700001"
       x="2" /><rect
       id="rect10"
       height="1"
       width="4"
       y="21.700001"
       x="2" /><rect
       id="rect12"
       height="1"
       width="4"
       y="19.700001"
       x="2" /><rect
       id="rect14"
       height="1"
       width="4"
       y="17.700001"
       x="2" /><rect
       id="rect16"
       height="1"
       width="4"
       y="15.700002"
       x="2" /><rect
       id="rect18"
       height="1"
       width="4"
       y="13.700002"
       x="2" /><rect
       id="rect20"
       height="1"
       width="4"
       y="43.700001"
       x="2" /><rect
       id="rect22"
       height="1"
       width="4"
       y="41.700001"
       x="2" /><rect
       id="rect24"
       height="1"
       width="4"
       y="39.700001"
       x="2" /><rect
       id="rect26"
       height="1"
       width="4"
       y="37.700001"
       x="2" /><rect
       id="rect28"
       height="1"
       width="4"
       y="35.700001"
       x="2" /><rect
       id="rect30"
       height="1"
       width="4"
       y="33.700001"
       x="2" /><rect
       id="rect32"
       height="1"
       width="4"
       y="31.700001"
       x="2" /><rect
       id="rect34"
       height="1"
       width="4"
       y="29.700001"
       x="2" /><rect
       id="rect36"
       height="1"
       width="4"
       y="13.700002"
       x="2" /><rect
       id="rect38"
       height="1"
       width="4"
       y="11.700002"
       x="2" /><rect
       id="rect40"
       height="1"
       width="4"
       y="9.7000017"
       x="2" /><path
       inkscape:connector-curvature="0"
       id="path42"
       d="m 15.8,33.800002 -6.2,-12.8 13.8,-6.9 4.8,9.6 H 21 v 7.6 z m -4.9,-12.3 5.3,11 3.8,-1.8 v -8 h 6.7 l -3.7,-7.2 z" /><polygon
       transform="translate(-1.2999999,2.7000016)"
       style="fill:#000000;fill-opacity:1"
       id="polygon44"
       points="28.3,20 41.3,20 41.3,35 21.3,35 21.3,28 22.3,28 22.3,34 40.3,34 40.3,21 28.3,21 " /></g></svg>