<svg xmlns="http://www.w3.org/2000/svg" xmlns:xlink="http://www.w3.org/1999/xlink" version="1.1" x="0px" y="0px" viewBox="0 0 50 62.5" enable-background="new 0 0 50 50" xml:space="preserve"><path d="M46.2,45.3H5.5V4.5h40.8V45.3z M6.5,44.3h38.8V5.5H6.5V44.3z"/><rect x="3.3" y="25" width="4" height="1"/><rect x="3.3" y="23" width="4" height="1"/><rect x="3.3" y="21" width="4" height="1"/><rect x="3.3" y="19" width="4" height="1"/><rect x="3.3" y="17" width="4" height="1"/><rect x="3.3" y="15" width="4" height="1"/><rect x="3.3" y="13" width="4" height="1"/><rect x="3.3" y="11" width="4" height="1"/><rect x="3.3" y="41" width="4" height="1"/><rect x="3.3" y="39" width="4" height="1"/><rect x="3.3" y="37" width="4" height="1"/><rect x="3.3" y="35" width="4" height="1"/><rect x="3.3" y="33" width="4" height="1"/><rect x="3.3" y="31" width="4" height="1"/><rect x="3.3" y="29" width="4" height="1"/><rect x="3.3" y="27" width="4" height="1"/><rect x="3.3" y="11" width="4" height="1"/><rect x="3.3" y="9" width="4" height="1"/><rect x="3.3" y="7" width="4" height="1"/><path d="M17.1,31.1l-6.2-12.8l13.8-6.9l4.8,9.6h-7.2v7.6L17.1,31.1z M12.2,18.8l5.3,11l3.8-1.8V20H28l-3.7-7.2  L12.2,18.8z"/><polygon points="41.3,35 21.3,35 21.3,28 22.3,28 22.3,34 40.3,34 40.3,21 28.3,21 28.3,20 41.3,20 "/><text x="0" y="65" fill="#000000" font-size="5px" font-weight="bold" font-family="'Helvetica Neue', Helvetica, Arial-Unicode, Arial, Sans-serif">Created by Linas Staniukynas</text><text x="0" y="70" fill="#000000" font-size="5px" font-weight="bold" font-family="'Helvetica Neue', Helvetica, Arial-Unicode, Arial, Sans-serif">from the Noun Project</text></svg>